<?xml version="1.0" encoding="UTF-8"?>
<svg width="24" height="24" viewBox="0 0 24 24" fill="none" xmlns="http://www.w3.org/2000/svg">
  <!-- Simple ghost icon placeholder -->
  <!-- Color: #00FF41 (Ghost Green) -->
  
  <!-- Ghost body -->
  <path d="M12 2C8.13 2 5 5.13 5 9V18C5 18.55 5.45 19 6 19C6.55 19 7 18.55 7 18V17C7 16.45 7.45 16 8 16C8.55 16 9 16.45 9 17V18C9 18.55 9.45 19 10 19C10.55 19 11 18.55 11 18V17C11 16.45 11.45 16 12 16C12.55 16 13 16.45 13 17V18C13 18.55 13.45 19 14 19C14.55 19 15 18.55 15 18V17C15 16.45 15.45 16 16 16C16.55 16 17 16.45 17 17V18C17 18.55 17.45 19 18 19C18.55 19 19 18.55 19 18V9C19 5.13 15.87 2 12 2Z" 
        fill="#00FF41" 
        opacity="0.9"/>
  
  <!-- Left eye -->
  <circle cx="9" cy="9" r="1.5" fill="#000000"/>
  
  <!-- Right eye -->
  <circle cx="15" cy="9" r="1.5" fill="#000000"/>
  
  <!-- Mouth (optional) -->
  <path d="M12 13C10.34 13 9 11.66 9 10H15C15 11.66 13.66 13 12 13Z" 
        fill="#000000" 
        opacity="0.6"/>
  
  <!-- Glow effect -->
  <circle cx="12" cy="10" r="10" 
          fill="none" 
          stroke="#00FF41" 
          stroke-width="0.5" 
          opacity="0.3"/>
</svg>
